<svg width="33" height="32" viewBox="0 0 33 32" fill="none" xmlns="http://www.w3.org/2000/svg">
<path d="M30.7911 16.3723C28.0677 13.6502 23.6662 13.6502 20.9427 16.3723C18.2194 19.0945 18.2194 23.4939 20.9427 26.216C23.6662 28.9382 28.0677 28.9382 30.7911 26.216C33.5058 23.4939 33.5058 19.0857 30.7911 16.3723ZM23.0776 24.0734C21.5578 22.5543 21.5578 20.0867 23.0776 18.5676C24.5974 17.0485 27.0661 17.0485 28.586 18.5676C30.1059 20.0867 30.1059 22.5543 28.586 24.0734C27.0661 25.5926 24.6063 25.5926 23.0776 24.0734Z" fill="url(#paint0_linear_230_97)"/>
<path d="M25.9416 26.6536C26.1908 26.7599 26.4488 26.822 26.707 26.884C29.0656 27.451 31.4332 26.1132 32.3677 23.8983C32.3766 23.8894 32.3766 23.8717 32.3766 23.8629C32.8928 22.5073 32.9462 21.0898 32.6347 19.7786C31.6557 19.4419 30.6766 18.9635 29.6442 18.8306C29.3594 18.7952 29.0834 18.804 28.7986 18.8306C29.7688 19.9646 30.0536 21.6125 29.3416 23.0832C28.5405 24.7488 26.627 25.6436 24.8291 25.1918C23.9122 24.9614 23.1468 24.4476 22.6306 23.7654C23.3872 25.0146 24.4017 26.0157 25.9416 26.6536Z" fill="url(#paint1_linear_230_97)"/>
<path d="M32.5784 23.2837C32.4356 23.7949 32.1947 24.2881 31.9092 24.7365C31.6148 25.1848 31.2579 25.6063 30.8386 25.947C30.4193 26.2968 29.9375 26.5658 29.429 26.7451C28.9116 26.9245 28.3673 27.0052 27.823 27.0142C27.2788 27.0142 26.7345 26.9335 26.2171 26.7631C25.6997 26.5927 25.218 26.3416 24.7717 26.0278C24.3257 25.7229 23.9242 25.3552 23.5673 24.9606C23.2105 24.5571 22.8893 24.1267 22.6305 23.6604C22.9339 24.0998 23.2819 24.5033 23.6565 24.8709C24.0312 25.2386 24.4417 25.5794 24.8788 25.8574C25.7532 26.4223 26.7792 26.772 27.8142 26.7541C28.849 26.7541 29.884 26.4313 30.7048 25.7946C31.1241 25.4718 31.4899 25.0862 31.8022 24.6647C32.1144 24.2432 32.3821 23.7769 32.5784 23.2837Z" fill="white"/>
<path d="M25.8698 15.9777C25.6202 15.8705 25.3618 15.7902 25.1121 15.7277C22.7766 15.1116 20.3877 16.4062 19.4161 18.6025C19.4071 18.6114 19.4071 18.6293 19.3983 18.6382C18.8633 19.9952 18.7742 21.4148 19.0594 22.7361C20.0222 23.0932 20.9938 23.5932 22.0189 23.745C22.2953 23.7896 22.5359 23.7896 22.8213 23.7628C21.8853 22.6022 21.6624 20.9416 22.3933 19.4774C23.2313 17.8257 25.1567 16.9776 26.9395 17.4686C27.8488 17.7186 28.5975 18.2543 29.0967 18.9507C28.3836 17.6829 27.3942 16.6472 25.8698 15.9777Z" fill="url(#paint2_linear_230_97)"/>
<path d="M19.1489 19.0559C19.3014 18.5636 19.5526 18.1058 19.8486 17.6739C20.1536 17.2506 20.5123 16.8533 20.9428 16.5337C21.3645 16.2054 21.8579 15.9636 22.3781 15.7995C22.8983 15.6353 23.4455 15.5663 23.9838 15.5749C24.5308 15.5835 25.0691 15.6785 25.5805 15.8513C26.0916 16.0327 26.5761 16.2746 27.0066 16.5855C27.4462 16.8878 27.8318 17.2506 28.1907 17.6393C28.5404 18.028 28.8544 18.4513 29.0967 18.9004C28.8006 18.4772 28.4598 18.0798 28.092 17.7171C27.7242 17.3543 27.3206 17.026 26.8899 16.741C26.0289 16.1795 25.0153 15.8254 23.9747 15.8254C22.9341 15.7995 21.9026 16.0931 21.0595 16.6892C20.6379 16.9828 20.2701 17.3456 19.9472 17.743C19.6334 18.1403 19.3552 18.5808 19.1489 19.0559Z" fill="white"/>
<path d="M16.8119 21.3508C16.8401 17.5003 13.7514 14.3645 9.90088 14.3345C6.05044 14.3045 2.91618 17.3917 2.88792 21.2422C2.85976 25.0928 5.94843 28.2285 9.79896 28.2585C13.6433 28.2823 16.7838 25.1889 16.8119 21.3508ZM5.91252 21.2596C5.92829 19.1108 7.68623 17.3792 9.83501 17.3959C11.9838 17.4126 13.7162 19.1714 13.7005 21.3203C13.6848 23.4692 11.9268 25.2007 9.77803 25.184C7.62911 25.1672 5.90295 23.4147 5.91252 21.2596Z" fill="url(#paint3_linear_230_97)"/>
<path d="M6.08418 25.1106C6.1833 25.3628 6.32017 25.5901 6.45717 25.8176C7.70836 27.8958 10.3228 28.6438 12.5566 27.7553C12.5692 27.7554 12.5818 27.743 12.5881 27.7367C13.9161 27.1533 14.9635 26.1966 15.679 25.0545C15.2318 24.1208 14.8856 23.0875 14.2558 22.2587C14.0812 22.031 13.8812 21.8406 13.6625 21.6563C13.5353 23.1433 12.5612 24.5026 11.0138 25.0274C9.26495 25.6255 7.28467 24.8902 6.34493 23.2922C5.86561 22.4773 5.69461 21.5715 5.81839 20.725C5.45932 22.1406 5.45804 23.566 6.08418 25.1106Z" fill="url(#paint4_linear_230_97)"/>
<path d="M13.1423 27.4742C12.678 27.7311 12.1576 27.9056 11.6378 28.0169C11.1117 28.1217 10.561 28.1633 10.024 28.1037C9.48061 28.0503 8.95087 27.8959 8.46622 27.6594C7.97535 27.4167 7.53592 27.0856 7.1476 26.7041C6.76567 26.3163 6.44124 25.872 6.19954 25.3838C5.95783 24.8956 5.79866 24.3762 5.70913 23.8381C5.61334 23.3063 5.59352 22.7622 5.62421 22.2311C5.6613 21.6937 5.74258 21.1629 5.89318 20.6513C5.79298 21.1757 5.7497 21.7068 5.7507 22.2318C5.75168 22.7567 5.797 23.2883 5.90564 23.7948C6.11678 24.8142 6.5876 25.7905 7.32668 26.5153C8.05286 27.2525 9.00914 27.7634 10.0387 27.9013C10.563 27.9735 11.0944 27.9636 11.6138 27.8902C12.1331 27.817 12.6532 27.6804 13.1423 27.4742Z" fill="white"/>
<path d="M13.6397 17.5677C13.5409 17.3147 13.4168 17.0743 13.2861 16.8525C12.0861 14.7564 9.48742 13.9629 7.2409 14.8119C7.22822 14.8117 7.21551 14.8242 7.20294 14.8242C5.86073 15.3954 4.78685 16.3281 4.04564 17.4585C4.46686 18.395 4.79249 19.4381 5.40372 20.2749C5.56586 20.5032 5.73468 20.6745 5.95405 20.8591C6.12411 19.3778 7.15074 18.0537 8.70677 17.5469C10.4715 16.9849 12.4269 17.7614 13.3282 19.3761C13.7882 20.1994 13.932 21.1087 13.7861 21.953C14.1889 20.5553 14.2324 19.1236 13.6397 17.5677Z" fill="url(#paint5_linear_230_97)"/>
<path d="M6.73038 14.9397C7.18821 14.7029 7.69059 14.5605 8.20604 14.4684C8.72157 14.3886 9.25641 14.3654 9.78621 14.4478C10.3159 14.5179 10.8345 14.6996 11.3164 14.9551C11.7984 15.2105 12.2316 15.5519 12.6032 15.9415C12.981 16.3372 13.291 16.7874 13.5268 17.2729C13.7562 17.7644 13.9239 18.2793 14.0045 18.8042C14.0976 19.3295 14.1097 19.8588 14.0847 20.3873C14.0531 20.9092 13.9719 21.4299 13.822 21.9177C13.9157 21.4098 13.9596 20.8881 13.96 20.3715C13.9603 19.8549 13.911 19.337 13.8118 18.8302C13.6076 17.8228 13.1486 16.8521 12.4184 16.1108C11.7067 15.3513 10.7736 14.8224 9.75733 14.64C9.25222 14.5458 8.73565 14.5383 8.22599 14.5871C7.72268 14.6423 7.21367 14.7533 6.73038 14.9397Z" fill="white"/>
<path d="M14.7943 2.53401C11.4081 4.36729 10.1519 8.58567 11.9836 11.9728C13.8153 15.3598 18.0317 16.6154 21.4178 14.7822C24.8041 12.9489 26.0603 8.73047 24.2286 5.34338C22.3944 1.9647 18.1696 0.706622 14.7943 2.53401ZM19.9736 12.1246C18.0839 13.1476 15.719 12.4434 14.6968 10.5533C13.6746 8.66312 14.3792 6.29711 16.2689 5.27392C18.1586 4.25086 20.5235 4.95508 21.5457 6.84526C22.5679 8.73557 21.8659 11.0931 19.9736 12.1246Z" fill="url(#paint6_linear_230_97)"/>
<path d="M23.264 10.1161C23.4371 9.90762 23.5701 9.67805 23.7032 9.44831C24.9198 7.34959 24.3134 4.69871 22.4573 3.17091C22.4513 3.15985 22.4344 3.15479 22.4259 3.15227C21.2741 2.27064 19.9307 1.81489 18.5851 1.73923C17.983 2.58148 17.2451 3.38328 16.8231 4.33486C16.7078 4.59768 16.6376 4.8647 16.5818 5.14523C17.9455 4.5391 19.6061 4.73643 20.8125 5.83854C22.1801 7.08171 22.4917 9.171 21.5455 10.7652C21.063 11.5782 20.3521 12.1651 19.551 12.4651C20.9642 12.0965 22.2132 11.4099 23.264 10.1161Z" fill="url(#paint7_linear_230_97)"/>
<path d="M21.9284 2.79353C22.3775 3.07623 22.7815 3.44785 23.1297 3.84944C23.4754 4.25958 23.7775 4.7219 23.9844 5.22103C24.1999 5.72271 24.3202 6.26124 24.347 6.79983C24.3712 7.34691 24.2932 7.89157 24.1465 8.41575C23.9912 8.93738 23.7585 9.43597 23.4475 9.88323C23.1366 10.3305 22.7584 10.7205 22.3303 11.0586C21.9108 11.3991 21.4438 11.679 20.9638 11.9084C20.4752 12.1352 19.971 12.3202 19.4503 12.4351C19.9579 12.2698 20.444 12.0515 20.9033 11.7973C21.3626 11.5431 21.8064 11.2469 22.1975 10.9074C22.9885 10.2306 23.6165 9.34707 23.8947 8.35C24.1901 7.35821 24.176 6.27415 23.8001 5.30578C23.6104 4.81176 23.3452 4.35113 23.0304 3.93158C22.7156 3.51202 22.3451 3.12241 21.9284 2.79353Z" fill="white"/>
<path d="M13.0115 7.13803C12.8376 7.34664 12.6868 7.57136 12.5557 7.79287C11.2987 9.85536 11.8577 12.5144 13.6853 14.0724C13.6913 14.0836 13.7084 14.0887 13.7144 14.0997C14.8624 14.9997 16.1974 15.4903 17.5452 15.594C18.1623 14.7732 18.9187 13.9846 19.3568 13.0455C19.4784 12.7933 19.5471 12.5628 19.6029 12.2816C18.2234 12.8474 16.5682 12.5871 15.3735 11.4688C14.0297 10.1942 13.7664 8.10681 14.7458 6.53829C15.2449 5.73813 15.9719 5.17344 16.7818 4.89381C15.3633 5.21539 14.0883 5.86811 13.0115 7.13803Z" fill="url(#paint8_linear_230_97)"/>
<path d="M14.0437 14.4579C13.6154 14.1712 13.2483 13.7999 12.9189 13.3928C12.6003 12.9798 12.3218 12.5225 12.1384 12.0187C11.9441 11.5209 11.8532 10.9791 11.8443 10.4336C11.8355 9.88823 11.9254 9.34407 12.0874 8.83061C12.2518 8.3088 12.4965 7.81999 12.808 7.37924C13.1277 6.94111 13.4978 6.54579 13.9187 6.22193C14.3339 5.88692 14.7916 5.62091 15.2666 5.38784C15.7389 5.16361 16.2342 4.98346 16.7338 4.87947C16.2437 5.04243 15.7656 5.25568 15.3129 5.50467C14.8602 5.75365 14.4305 6.04671 14.0344 6.37813C13.2505 7.04311 12.6218 7.91348 12.3249 8.91078C12.003 9.90069 11.9901 10.9731 12.3207 11.9513C12.4818 12.4392 12.7246 12.8952 13.0132 13.3181C13.3045 13.7323 13.6473 14.1246 14.0437 14.4579Z" fill="white"/>
<defs>
<linearGradient id="paint0_linear_230_97" x1="20.9284" y1="16.3546" x2="30.772" y2="26.2028" gradientUnits="userSpaceOnUse">
<stop offset="0.00130208" stop-color="#1C1E20"/>
<stop offset="0.1702" stop-color="#0D0E0F"/>
<stop offset="0.6354" stop-color="#1A1F25"/>
<stop offset="1" stop-color="#232527"/>
</linearGradient>
<linearGradient id="paint1_linear_230_97" x1="26.9199" y1="25.5499" x2="29.1719" y2="19.0015" gradientUnits="userSpaceOnUse">
<stop offset="0.00130208" stop-color="#353535"/>
<stop offset="0.3813" stop-color="#414141" stop-opacity="0.6195"/>
<stop offset="0.7284" stop-opacity="0.2719"/>
<stop offset="1" stop-color="#040507" stop-opacity="0"/>
</linearGradient>
<linearGradient id="paint2_linear_230_97" x1="24.8654" y1="17.0436" x2="22.4615" y2="23.551" gradientUnits="userSpaceOnUse">
<stop offset="0.00130208" stop-color="#474646"/>
<stop offset="0.3813" stop-opacity="0.6195"/>
<stop offset="0.7284" stop-color="#040404" stop-opacity="0.2719"/>
<stop offset="1" stop-color="#303030" stop-opacity="0"/>
</linearGradient>
<linearGradient id="paint3_linear_230_97" x1="9.90348" y1="14.3118" x2="9.79491" y2="28.2356" gradientUnits="userSpaceOnUse">
<stop offset="0.00130208" stop-color="#1C1E20"/>
<stop offset="0.1702" stop-color="#0D0E0F"/>
<stop offset="0.6354" stop-color="#1A1F25"/>
<stop offset="1" stop-color="#232527"/>
</linearGradient>
<linearGradient id="paint4_linear_230_97" x1="7.55697" y1="25.0331" x2="13.8027" y2="22.0422" gradientUnits="userSpaceOnUse">
<stop offset="0.00130208" stop-color="#353535"/>
<stop offset="0.3813" stop-color="#414141" stop-opacity="0.6195"/>
<stop offset="0.7284" stop-opacity="0.2719"/>
<stop offset="1" stop-color="#040507" stop-opacity="0"/>
</linearGradient>
<linearGradient id="paint5_linear_230_97" x1="12.1755" y1="17.6002" x2="5.85252" y2="20.4541" gradientUnits="userSpaceOnUse">
<stop offset="0.00130208" stop-color="#474646"/>
<stop offset="0.3813" stop-opacity="0.6195"/>
<stop offset="0.7284" stop-color="#040404" stop-opacity="0.2719"/>
<stop offset="1" stop-color="#303030" stop-opacity="0"/>
</linearGradient>
<linearGradient id="paint6_linear_230_97" x1="11.9624" y1="11.9815" x2="24.2105" y2="5.35798" gradientUnits="userSpaceOnUse">
<stop offset="0.00130208" stop-color="#1C1E20"/>
<stop offset="0.1702" stop-color="#0D0E0F"/>
<stop offset="0.6354" stop-color="#1A1F25"/>
<stop offset="1" stop-color="#232527"/>
</linearGradient>
<linearGradient id="paint7_linear_230_97" x1="22.4854" y1="8.86354" x2="16.8521" y2="4.83623" gradientUnits="userSpaceOnUse">
<stop offset="0.00130208" stop-color="#353535"/>
<stop offset="0.3813" stop-color="#414141" stop-opacity="0.6195"/>
<stop offset="0.7284" stop-opacity="0.2719"/>
<stop offset="1" stop-color="#040507" stop-opacity="0"/>
</linearGradient>
<linearGradient id="paint8_linear_230_97" x1="13.7465" y1="8.40482" x2="19.2971" y2="12.566" gradientUnits="userSpaceOnUse">
<stop offset="0.00130208" stop-color="#474646"/>
<stop offset="0.3813" stop-opacity="0.6195"/>
<stop offset="0.7284" stop-color="#040404" stop-opacity="0.2719"/>
<stop offset="1" stop-color="#303030" stop-opacity="0"/>
</linearGradient>
</defs>
</svg>
