<svg width="33" height="33" viewBox="0 0 33 33" fill="none" xmlns="http://www.w3.org/2000/svg">
<path d="M30.7911 17.3723C28.0677 14.6502 23.6662 14.6502 20.9427 17.3723C18.2194 20.0945 18.2194 24.4939 20.9427 27.216C23.6662 29.9382 28.0677 29.9382 30.7911 27.216C33.5058 24.4939 33.5058 20.0857 30.7911 17.3723ZM23.0776 25.0734C21.5578 23.5543 21.5578 21.0867 23.0776 19.5676C24.5974 18.0485 27.0661 18.0485 28.586 19.5676C30.1059 21.0867 30.1059 23.5543 28.586 25.0734C27.0661 26.5926 24.6063 26.5926 23.0776 25.0734Z" fill="url(#paint0_linear_230_116)"/>
<path d="M25.9416 27.6536C26.1908 27.7599 26.4488 27.8219 26.707 27.884C29.0656 28.451 31.4332 27.1132 32.3677 24.8983C32.3766 24.8894 32.3766 24.8717 32.3766 24.8628C32.8928 23.5073 32.9462 22.0898 32.6347 20.7786C31.6557 20.4419 30.6766 19.9635 29.6442 19.8306C29.3594 19.7951 29.0834 19.804 28.7986 19.8306C29.7688 20.9646 30.0536 22.6125 29.3416 24.0832C28.5405 25.7488 26.627 26.6436 24.8291 26.1918C23.9122 25.9614 23.1468 25.4476 22.6306 24.7654C23.3872 26.0146 24.4017 27.0157 25.9416 27.6536Z" fill="url(#paint1_linear_230_116)"/>
<path d="M32.5784 24.2837C32.4356 24.7949 32.1947 25.2881 31.9092 25.7364C31.6148 26.1848 31.2579 26.6063 30.8386 26.947C30.4193 27.2968 29.9375 27.5658 29.429 27.7451C28.9116 27.9245 28.3673 28.0052 27.823 28.0142C27.2788 28.0142 26.7345 27.9335 26.2171 27.7631C25.6997 27.5927 25.218 27.3416 24.7717 27.0277C24.3257 26.7229 23.9242 26.3552 23.5673 25.9606C23.2105 25.5571 22.8893 25.1267 22.6305 24.6604C22.9339 25.0998 23.2819 25.5033 23.6565 25.8709C24.0312 26.2386 24.4417 26.5794 24.8788 26.8574C25.7532 27.4223 26.7792 27.772 27.8142 27.7541C28.849 27.7541 29.884 27.4313 30.7048 26.7946C31.1241 26.4718 31.4899 26.0862 31.8022 25.6647C32.1144 25.2432 32.3821 24.7769 32.5784 24.2837Z" fill="black"/>
<path d="M25.8698 16.9777C25.6202 16.8705 25.3618 16.7902 25.1121 16.7277C22.7766 16.1116 20.3877 17.4062 19.4161 19.6025C19.4071 19.6114 19.4071 19.6293 19.3983 19.6382C18.8633 20.9952 18.7742 22.4148 19.0594 23.7361C20.0222 24.0932 20.9938 24.5932 22.0189 24.745C22.2953 24.7896 22.5359 24.7896 22.8213 24.7628C21.8853 23.6022 21.6624 21.9416 22.3933 20.4774C23.2313 18.8257 25.1567 17.9776 26.9395 18.4686C27.8488 18.7186 28.5975 19.2543 29.0967 19.9507C28.3836 18.6829 27.3942 17.6472 25.8698 16.9777Z" fill="url(#paint2_linear_230_116)"/>
<path d="M19.1489 20.0559C19.3014 19.5636 19.5526 19.1058 19.8486 18.6739C20.1536 18.2506 20.5123 17.8533 20.9428 17.5337C21.3645 17.2054 21.8579 16.9636 22.3781 16.7995C22.8983 16.6353 23.4455 16.5663 23.9838 16.5749C24.5308 16.5835 25.0691 16.6785 25.5805 16.8513C26.0916 17.0327 26.5761 17.2746 27.0066 17.5855C27.4462 17.8878 27.8318 18.2506 28.1907 18.6393C28.5404 19.028 28.8544 19.4513 29.0967 19.9004C28.8006 19.4772 28.4598 19.0798 28.092 18.7171C27.7242 18.3543 27.3206 18.026 26.8899 17.741C26.0289 17.1795 25.0153 16.8254 23.9747 16.8254C22.9341 16.7995 21.9026 17.0931 21.0595 17.6892C20.6379 17.9828 20.2701 18.3456 19.9472 18.743C19.6334 19.1403 19.3552 19.5808 19.1489 20.0559Z" fill="black"/>
<path d="M16.8119 22.3508C16.8401 18.5002 13.7514 15.3645 9.90088 15.3344C6.05044 15.3045 2.91618 18.3917 2.88792 22.2422C2.85976 26.0928 5.94843 29.2285 9.79896 29.2585C13.6433 29.2823 16.7838 26.1889 16.8119 22.3508ZM5.91252 22.2596C5.92829 20.1108 7.68623 18.3792 9.83501 18.3959C11.9838 18.4126 13.7162 20.1714 13.7005 22.3203C13.6848 24.4691 11.9268 26.2007 9.77803 26.184C7.62911 26.1671 5.90295 24.4147 5.91252 22.2596Z" fill="url(#paint3_linear_230_116)"/>
<path d="M6.08418 26.1106C6.1833 26.3628 6.32017 26.5901 6.45717 26.8175C7.70836 28.8958 10.3228 29.6437 12.5566 28.7553C12.5692 28.7554 12.5818 28.7429 12.5881 28.7367C13.9161 28.1533 14.9635 27.1966 15.679 26.0545C15.2318 25.1208 14.8856 24.0875 14.2558 23.2587C14.0812 23.031 13.8812 22.8406 13.6625 22.6563C13.5353 24.1433 12.5612 25.5026 11.0138 26.0274C9.26495 26.6254 7.28467 25.8902 6.34493 24.2922C5.86561 23.4773 5.69461 22.5714 5.81839 21.725C5.45932 23.1406 5.45804 24.5659 6.08418 26.1106Z" fill="url(#paint4_linear_230_116)"/>
<path d="M13.1423 28.4742C12.678 28.7311 12.1576 28.9056 11.6378 29.0169C11.1117 29.1217 10.561 29.1633 10.024 29.1036C9.48061 29.0503 8.95087 28.8959 8.46622 28.6594C7.97535 28.4167 7.53592 28.0855 7.1476 27.7041C6.76567 27.3163 6.44124 26.872 6.19954 26.3838C5.95783 25.8956 5.79866 25.3762 5.70913 24.838C5.61334 24.3063 5.59352 23.7622 5.62421 23.2311C5.6613 22.6937 5.74258 22.1629 5.89318 21.6513C5.79298 22.1757 5.7497 22.7068 5.7507 23.2318C5.75168 23.7567 5.797 24.2883 5.90564 24.7948C6.11678 25.8142 6.5876 26.7905 7.32668 27.5153C8.05286 28.2525 9.00914 28.7634 10.0387 28.9013C10.563 28.9735 11.0944 28.9635 11.6138 28.8902C12.1331 28.817 12.6532 28.6804 13.1423 28.4742Z" fill="black"/>
<path d="M13.6397 18.5677C13.5409 18.3147 13.4168 18.0742 13.2861 17.8525C12.0861 15.7563 9.48742 14.9628 7.2409 15.8118C7.22822 15.8117 7.21551 15.8242 7.20294 15.8242C5.86073 16.3954 4.78685 17.328 4.04564 18.4585C4.46686 19.395 4.79249 20.4381 5.40372 21.2749C5.56586 21.5031 5.73468 21.6745 5.95405 21.8591C6.12411 20.3778 7.15074 19.0536 8.70677 18.5469C10.4715 17.9848 12.4269 18.7614 13.3282 20.3761C13.7882 21.1994 13.932 22.1087 13.7861 22.9529C14.1889 21.5553 14.2324 20.1236 13.6397 18.5677Z" fill="url(#paint5_linear_230_116)"/>
<path d="M6.73038 15.9397C7.18821 15.7029 7.69059 15.5605 8.20604 15.4684C8.72157 15.3886 9.25641 15.3654 9.78621 15.4478C10.3159 15.5179 10.8345 15.6996 11.3164 15.9551C11.7984 16.2105 12.2316 16.5519 12.6032 16.9414C12.981 17.3372 13.291 17.7874 13.5268 18.2729C13.7562 18.7644 13.9239 19.2793 14.0045 19.8042C14.0976 20.3295 14.1097 20.8588 14.0847 21.3873C14.0531 21.9092 13.9719 22.4299 13.822 22.9177C13.9157 22.4098 13.9596 21.8881 13.96 21.3715C13.9603 20.8549 13.911 20.337 13.8118 19.8302C13.6076 18.8228 13.1486 17.8521 12.4184 17.1108C11.7067 16.3513 10.7736 15.8224 9.75733 15.64C9.25222 15.5457 8.73565 15.5383 8.22599 15.5871C7.72268 15.6423 7.21367 15.7533 6.73038 15.9397Z" fill="black"/>
<path d="M14.3504 2.53401C10.9642 4.36729 9.70805 8.58567 11.5397 11.9728C13.3714 15.3598 17.5878 16.6154 20.974 14.7822C24.3602 12.9489 25.6164 8.73047 23.7847 5.34338C21.9505 1.9647 17.7257 0.706622 14.3504 2.53401ZM19.5298 12.1246C17.6401 13.1476 15.2752 12.4434 14.253 10.5533C13.2308 8.66312 13.9353 6.29711 15.8251 5.27392C17.7148 4.25086 20.0797 4.95508 21.1019 6.84526C22.1241 8.73557 21.422 11.0931 19.5298 12.1246Z" fill="url(#paint6_linear_230_116)"/>
<path d="M22.8202 10.1161C22.9932 9.90762 23.1263 9.67805 23.2594 9.44831C24.476 7.34959 23.8695 4.69871 22.0134 3.17091C22.0075 3.15985 21.9905 3.15479 21.982 3.15227C20.8302 2.27064 19.4869 1.81489 18.1413 1.73923C17.5392 2.58148 16.8013 3.38328 16.3792 4.33486C16.264 4.59768 16.1937 4.8647 16.1379 5.14523C17.5016 4.5391 19.1623 4.73643 20.3686 5.83854C21.7363 7.08171 22.0478 9.171 21.1016 10.7652C20.6192 11.5782 19.9083 12.1651 19.1071 12.4651C20.5203 12.0965 21.7693 11.4099 22.8202 10.1161Z" fill="url(#paint7_linear_230_116)"/>
<path d="M21.4845 2.79353C21.9337 3.07623 22.3376 3.44785 22.6859 3.84944C23.0315 4.25958 23.3336 4.7219 23.5405 5.22103C23.7561 5.72271 23.8764 6.26124 23.9031 6.79983C23.9274 7.34691 23.8494 7.89157 23.7026 8.41575C23.5473 8.93738 23.3146 9.43597 23.0037 9.88323C22.6927 10.3305 22.3146 10.7205 21.8864 11.0586C21.4669 11.3991 20.9999 11.679 20.52 11.9084C20.0314 12.1352 19.5272 12.3202 19.0064 12.4351C19.5141 12.2698 20.0002 12.0515 20.4595 11.7973C20.9188 11.5431 21.3625 11.2469 21.7537 10.9074C22.5447 10.2306 23.1727 9.34707 23.4509 8.35C23.7462 7.35821 23.7322 6.27415 23.3562 5.30578C23.1665 4.81176 22.9014 4.35113 22.5865 3.93158C22.2717 3.51202 21.9012 3.12241 21.4845 2.79353Z" fill="black"/>
<path d="M12.5677 7.13803C12.3937 7.34664 12.243 7.57136 12.1118 7.79287C10.8549 9.85536 11.4138 12.5144 13.2414 14.0724C13.2474 14.0836 13.2645 14.0887 13.2706 14.0997C14.4185 14.9997 15.7536 15.4903 17.1014 15.594C17.7184 14.7732 18.4749 13.9846 18.9129 13.0455C19.0346 12.7933 19.1032 12.5628 19.159 12.2816C17.7795 12.8474 16.1244 12.5871 14.9297 11.4688C13.5859 10.1942 13.3225 8.10681 14.3019 6.53829C14.801 5.73813 15.5281 5.17344 16.338 4.89381C14.9194 5.21539 13.6445 5.86811 12.5677 7.13803Z" fill="url(#paint8_linear_230_116)"/>
<path d="M13.5999 14.4579C13.1715 14.1712 12.8045 13.7999 12.475 13.3928C12.1564 12.9798 11.878 12.5225 11.6945 12.0187C11.5003 11.5209 11.4093 10.9791 11.4005 10.4336C11.3917 9.88823 11.4816 9.34407 11.6435 8.8306C11.8079 8.3088 12.0526 7.81999 12.3641 7.37923C12.6838 6.94111 13.0539 6.54579 13.4748 6.22192C13.89 5.88692 14.3478 5.62091 14.8227 5.38783C15.2951 5.16361 15.7903 4.98346 16.29 4.87947C15.7998 5.04243 15.3217 5.25568 14.8691 5.50466C14.4164 5.75365 13.9866 6.0467 13.5905 6.37813C12.8067 7.04311 12.178 7.91347 11.881 8.91078C11.5592 9.90069 11.5463 10.9731 11.8769 11.9513C12.038 12.4392 12.2807 12.8952 12.5694 13.3181C12.8606 13.7323 13.2035 14.1245 13.5999 14.4579Z" fill="black"/>
<defs>
<linearGradient id="paint0_linear_230_116" x1="20.9284" y1="17.3546" x2="30.772" y2="27.2028" gradientUnits="userSpaceOnUse">
<stop offset="0.00130208" stop-color="#F0F0F0"/>
<stop offset="0.1702" stop-color="white"/>
<stop offset="0.6354" stop-color="white"/>
<stop offset="1" stop-color="white"/>
</linearGradient>
<linearGradient id="paint1_linear_230_116" x1="26.9199" y1="26.5499" x2="29.1719" y2="20.0015" gradientUnits="userSpaceOnUse">
<stop offset="0.00130208" stop-color="#CFD0D0"/>
<stop offset="0.3813" stop-color="#C0CFE5" stop-opacity="0.6195"/>
<stop offset="0.7284" stop-color="#D5DADF" stop-opacity="0.2719"/>
<stop offset="1" stop-color="#0271EB" stop-opacity="0"/>
</linearGradient>
<linearGradient id="paint2_linear_230_116" x1="24.8654" y1="18.0436" x2="22.4615" y2="24.551" gradientUnits="userSpaceOnUse">
<stop offset="0.00130208" stop-color="#878787"/>
<stop offset="0.3813" stop-color="#C3C8CE" stop-opacity="0.6195"/>
<stop offset="0.7284" stop-color="#E1E4E8" stop-opacity="0.2719"/>
<stop offset="1" stop-color="#E5E9EE" stop-opacity="0"/>
</linearGradient>
<linearGradient id="paint3_linear_230_116" x1="9.90348" y1="15.3118" x2="9.79491" y2="29.2356" gradientUnits="userSpaceOnUse">
<stop offset="0.00130208" stop-color="#F0F0F0"/>
<stop offset="0.1702" stop-color="white"/>
<stop offset="0.6354" stop-color="white"/>
<stop offset="1" stop-color="white"/>
</linearGradient>
<linearGradient id="paint4_linear_230_116" x1="7.55697" y1="26.0331" x2="13.8027" y2="23.0422" gradientUnits="userSpaceOnUse">
<stop offset="0.00130208" stop-color="#CFD0D0"/>
<stop offset="0.3813" stop-color="#C0CFE5" stop-opacity="0.6195"/>
<stop offset="0.7284" stop-color="#D5DADF" stop-opacity="0.2719"/>
<stop offset="1" stop-color="#0271EB" stop-opacity="0"/>
</linearGradient>
<linearGradient id="paint5_linear_230_116" x1="12.1755" y1="18.6002" x2="5.85252" y2="21.454" gradientUnits="userSpaceOnUse">
<stop offset="0.00130208" stop-color="#878787"/>
<stop offset="0.3813" stop-color="#C3C8CE" stop-opacity="0.6195"/>
<stop offset="0.7284" stop-color="#E1E4E8" stop-opacity="0.2719"/>
<stop offset="1" stop-color="#E5E9EE" stop-opacity="0"/>
</linearGradient>
<linearGradient id="paint6_linear_230_116" x1="11.5186" y1="11.9815" x2="23.7666" y2="5.35798" gradientUnits="userSpaceOnUse">
<stop offset="0.00130208" stop-color="#F0F0F0"/>
<stop offset="0.1702" stop-color="white"/>
<stop offset="0.6354" stop-color="white"/>
<stop offset="1" stop-color="white"/>
</linearGradient>
<linearGradient id="paint7_linear_230_116" x1="22.0416" y1="8.86354" x2="16.4082" y2="4.83623" gradientUnits="userSpaceOnUse">
<stop offset="0.00130208" stop-color="#CFD0D0"/>
<stop offset="0.3813" stop-color="#C0CFE5" stop-opacity="0.6195"/>
<stop offset="0.7284" stop-color="#D5DADF" stop-opacity="0.2719"/>
<stop offset="1" stop-color="#0271EB" stop-opacity="0"/>
</linearGradient>
<linearGradient id="paint8_linear_230_116" x1="13.3027" y1="8.40482" x2="18.8533" y2="12.566" gradientUnits="userSpaceOnUse">
<stop offset="0.00130208" stop-color="#878787"/>
<stop offset="0.3813" stop-color="#C3C8CE" stop-opacity="0.6195"/>
<stop offset="0.7284" stop-color="#E1E4E8" stop-opacity="0.2719"/>
<stop offset="1" stop-color="#E5E9EE" stop-opacity="0"/>
</linearGradient>
</defs>
</svg>
